<svg id="Group_258" data-name="Group 258" xmlns="http://www.w3.org/2000/svg" width="470.397" height="175.319" viewBox="0 0 470.397 175.319">
  <path id="Path_3478" data-name="Path 3478" d="M411.277,110.254a9.877,9.877,0,1,1,9.877-9.877A10.014,10.014,0,0,1,411.277,110.254Z" transform="translate(49.243 -90.5)" fill="#929074"/>
  <ellipse id="Ellipse_2162" data-name="Ellipse 2162" cx="9.877" cy="9.877" rx="9.877" ry="9.877" transform="translate(450.643 51.855)" fill="#929074"/>
  <path id="Path_3479" data-name="Path 3479" d="M411.277,135.454a9.877,9.877,0,1,1,9.877-9.877A10.014,10.014,0,0,1,411.277,135.454Z" transform="translate(49.243 -11.99)" fill="#929074"/>
  <path id="Path_3480" data-name="Path 3480" d="M411.277,148.054a9.877,9.877,0,1,1,9.877-9.877A9.749,9.749,0,0,1,411.277,148.054Z" transform="translate(49.243 27.265)" fill="#929074"/>
  <path id="Path_3481" data-name="Path 3481" d="M399.177,110.254a9.877,9.877,0,1,1,9.877-9.877C408.643,105.727,404.527,110.254,399.177,110.254Z" transform="translate(11.546 -90.5)" fill="#929074"/>
  <path id="Path_3482" data-name="Path 3482" d="M399.177,122.854a9.877,9.877,0,1,1,9.877-9.877C408.643,118.327,404.527,122.854,399.177,122.854Z" transform="translate(11.546 -51.245)" fill="#929074"/>
  <path id="Path_3483" data-name="Path 3483" d="M399.177,135.454a9.877,9.877,0,1,1,9.877-9.877C408.643,130.927,404.527,135.454,399.177,135.454Z" transform="translate(11.546 -11.99)" fill="#929074"/>
  <path id="Path_3484" data-name="Path 3484" d="M399.177,148.054a9.877,9.877,0,1,1,9.877-9.877C408.643,143.939,404.527,148.054,399.177,148.054Z" transform="translate(11.546 27.265)" fill="#929074"/>
  <path id="Path_3485" data-name="Path 3485" d="M386.977,110.254a9.877,9.877,0,1,1,9.877-9.877A10.015,10.015,0,0,1,386.977,110.254Z" transform="translate(-26.462 -90.5)" fill="#929074"/>
  <ellipse id="Ellipse_2163" data-name="Ellipse 2163" cx="9.877" cy="9.877" rx="9.877" ry="9.877" transform="translate(350.638 51.855)" fill="#929074"/>
  <path id="Path_3486" data-name="Path 3486" d="M386.977,135.454a9.877,9.877,0,1,1,9.877-9.877A10.015,10.015,0,0,1,386.977,135.454Z" transform="translate(-26.462 -11.99)" fill="#929074"/>
  <path id="Path_3487" data-name="Path 3487" d="M386.977,148.054a9.877,9.877,0,1,1,9.877-9.877A9.749,9.749,0,0,1,386.977,148.054Z" transform="translate(-26.462 27.265)" fill="#929074"/>
  <path id="Path_3488" data-name="Path 3488" d="M374.777,110.254a9.877,9.877,0,1,1,9.877-9.877A10.015,10.015,0,0,1,374.777,110.254Z" transform="translate(-64.471 -90.5)" fill="#929074"/>
  <path id="Path_3489" data-name="Path 3489" d="M374.777,122.854a9.877,9.877,0,1,1,9.877-9.877A10.015,10.015,0,0,1,374.777,122.854Z" transform="translate(-64.471 -51.245)" fill="#929074"/>
  <path id="Path_3490" data-name="Path 3490" d="M374.777,135.454a9.877,9.877,0,1,1,9.877-9.877A10.015,10.015,0,0,1,374.777,135.454Z" transform="translate(-64.471 -11.99)" fill="#929074"/>
  <path id="Path_3491" data-name="Path 3491" d="M374.777,148.054a9.877,9.877,0,1,1,9.877-9.877A9.749,9.749,0,0,1,374.777,148.054Z" transform="translate(-64.471 27.265)" fill="#929074"/>
  <path id="Path_3492" data-name="Path 3492" d="M362.677,110.254a9.877,9.877,0,1,1,9.877-9.877C372.143,105.727,368.027,110.254,362.677,110.254Z" transform="translate(-102.168 -90.5)" fill="#929074"/>
  <ellipse id="Ellipse_2164" data-name="Ellipse 2164" cx="9.877" cy="9.877" rx="9.877" ry="9.877" transform="translate(250.632 51.855)" fill="#929074"/>
  <path id="Path_3493" data-name="Path 3493" d="M362.677,135.454a9.877,9.877,0,1,1,9.877-9.877C372.143,130.927,368.027,135.454,362.677,135.454Z" transform="translate(-102.168 -11.99)" fill="#929074"/>
  <path id="Path_3494" data-name="Path 3494" d="M362.677,148.054a9.877,9.877,0,1,1,9.877-9.877C372.143,143.939,368.027,148.054,362.677,148.054Z" transform="translate(-102.168 27.265)" fill="#929074"/>
  <path id="Path_3495" data-name="Path 3495" d="M350.477,110.254a9.877,9.877,0,1,1,9.877-9.877A10.015,10.015,0,0,1,350.477,110.254Z" transform="translate(-140.177 -90.5)" fill="#929074"/>
  <path id="Path_3496" data-name="Path 3496" d="M350.477,122.854a9.877,9.877,0,1,1,9.877-9.877A10.015,10.015,0,0,1,350.477,122.854Z" transform="translate(-140.177 -51.245)" fill="#929074"/>
  <path id="Path_3497" data-name="Path 3497" d="M350.477,135.454a9.877,9.877,0,1,1,9.877-9.877A10.015,10.015,0,0,1,350.477,135.454Z" transform="translate(-140.177 -11.99)" fill="#929074"/>
  <path id="Path_3498" data-name="Path 3498" d="M350.477,148.054a9.877,9.877,0,1,1,9.877-9.877A9.749,9.749,0,0,1,350.477,148.054Z" transform="translate(-140.177 27.265)" fill="#929074"/>
  <path id="Path_3499" data-name="Path 3499" d="M338.277,110.254a9.877,9.877,0,1,1,9.877-9.877A10.015,10.015,0,0,1,338.277,110.254Z" transform="translate(-178.186 -90.5)" fill="#929074"/>
  <ellipse id="Ellipse_2165" data-name="Ellipse 2165" cx="9.877" cy="9.877" rx="9.877" ry="9.877" transform="translate(150.214 51.855)" fill="#929074"/>
  <path id="Path_3500" data-name="Path 3500" d="M338.277,135.454a9.877,9.877,0,1,1,9.877-9.877A10.015,10.015,0,0,1,338.277,135.454Z" transform="translate(-178.186 -11.99)" fill="#929074"/>
  <path id="Path_3501" data-name="Path 3501" d="M338.277,148.054a9.877,9.877,0,1,1,9.877-9.877A9.749,9.749,0,0,1,338.277,148.054Z" transform="translate(-178.186 27.265)" fill="#929074"/>
  <path id="Path_3502" data-name="Path 3502" d="M326.177,110.254a9.877,9.877,0,1,1,9.877-9.877C335.643,105.727,331.527,110.254,326.177,110.254Z" transform="translate(-215.882 -90.5)" fill="#929074"/>
  <path id="Path_3503" data-name="Path 3503" d="M326.177,122.854a9.877,9.877,0,1,1,9.877-9.877C335.643,118.327,331.527,122.854,326.177,122.854Z" transform="translate(-215.882 -51.245)" fill="#929074"/>
  <path id="Path_3504" data-name="Path 3504" d="M326.177,135.454a9.877,9.877,0,1,1,9.877-9.877C335.643,130.927,331.527,135.454,326.177,135.454Z" transform="translate(-215.882 -11.99)" fill="#929074"/>
  <path id="Path_3505" data-name="Path 3505" d="M326.177,148.054a9.877,9.877,0,1,1,9.877-9.877C335.643,143.939,331.527,148.054,326.177,148.054Z" transform="translate(-215.882 27.265)" fill="#929074"/>
  <path id="Path_3506" data-name="Path 3506" d="M313.977,110.254a9.877,9.877,0,1,1,9.877-9.877C323.443,105.727,319.327,110.254,313.977,110.254Z" transform="translate(-253.891 -90.5)" fill="#929074"/>
  <path id="Path_3507" data-name="Path 3507" d="M313.977,122.854a9.877,9.877,0,1,1,9.877-9.877C323.443,118.327,319.327,122.854,313.977,122.854Z" transform="translate(-253.891 -51.245)" fill="#929074"/>
  <path id="Path_3508" data-name="Path 3508" d="M313.977,135.454a9.877,9.877,0,1,1,9.877-9.877C323.443,130.927,319.327,135.454,313.977,135.454Z" transform="translate(-253.891 -11.99)" fill="#929074"/>
  <path id="Path_3509" data-name="Path 3509" d="M313.977,148.054a9.877,9.877,0,1,1,9.877-9.877C323.443,143.939,319.327,148.054,313.977,148.054Z" transform="translate(-253.891 27.265)" fill="#929074"/>
  <path id="Path_3510" data-name="Path 3510" d="M301.777,110.254a9.877,9.877,0,1,1,9.877-9.877A10.015,10.015,0,0,1,301.777,110.254Z" transform="translate(-291.9 -90.5)" fill="#929074"/>
  <path id="Path_3511" data-name="Path 3511" d="M301.777,122.854a9.877,9.877,0,1,1,9.877-9.877A10.015,10.015,0,0,1,301.777,122.854Z" transform="translate(-291.9 -51.245)" fill="#929074"/>
  <path id="Path_3512" data-name="Path 3512" d="M301.777,135.454a9.877,9.877,0,1,1,9.877-9.877A10.015,10.015,0,0,1,301.777,135.454Z" transform="translate(-291.9 -11.99)" fill="#929074"/>
  <path id="Path_3513" data-name="Path 3513" d="M301.777,148.054a9.877,9.877,0,1,1,9.877-9.877A9.749,9.749,0,0,1,301.777,148.054Z" transform="translate(-291.9 27.265)" fill="#929074"/>
</svg>
